<svg width="21" height="21" viewBox="0 0 21 21" fill="none" xmlns="http://www.w3.org/2000/svg">
<path d="M0.880557 19.3902C0.490033 18.9997 0.490033 18.3665 0.880557 17.976L17.9748 0.88178C18.3653 0.491255 18.9985 0.491255 19.389 0.881779L20.2013 1.69411C20.5918 2.08464 20.5918 2.7178 20.2013 3.10832L3.1071 20.2025C2.71658 20.5931 2.08341 20.5931 1.69289 20.2025L0.880557 19.3902Z" fill="#232B5B"/>
<path d="M19.3873 20.2025C18.9967 20.593 18.3636 20.593 17.973 20.2025L0.878831 3.10831C0.488307 2.71778 0.488306 2.08462 0.87883 1.69409L1.69116 0.88176C2.08169 0.491236 2.71485 0.491236 3.10538 0.88176L20.1996 17.976C20.5901 18.3665 20.5901 18.9997 20.1996 19.3902L19.3873 20.2025Z" fill="#232B5B"/>
</svg>
