<svg width="19" height="19" viewBox="0 0 19 19" fill="none" xmlns="http://www.w3.org/2000/svg">
<path d="M18.541 14.6113C18.4912 14.4611 18.174 14.2398 17.5899 13.948C17.4316 13.8561 17.2061 13.7311 16.9143 13.5725C16.6223 13.414 16.3572 13.2679 16.1196 13.1343C15.8814 13.0008 15.6584 12.8715 15.4499 12.7465C15.4166 12.7215 15.3123 12.6486 15.1371 12.5274C14.9617 12.4065 14.8138 12.3167 14.6926 12.2582C14.5716 12.2 14.4527 12.1707 14.3358 12.1707C14.169 12.1707 13.9606 12.2897 13.7104 12.5274C13.4601 12.7653 13.2306 13.0238 13.0221 13.3035C12.8136 13.5832 12.5924 13.8416 12.359 14.0795C12.1253 14.3174 11.9332 14.4362 11.7832 14.4362C11.7079 14.4362 11.614 14.4152 11.5015 14.3738C11.389 14.3321 11.3034 14.2964 11.2447 14.2676C11.1865 14.2382 11.0866 14.1799 10.9446 14.092C10.8024 14.0044 10.7233 13.9564 10.7067 13.948C9.56361 13.3138 8.58327 12.5878 7.76549 11.7704C6.94797 10.9525 6.22193 9.97222 5.58783 8.82903C5.5795 8.81233 5.53141 8.73302 5.44387 8.59125C5.35619 8.44935 5.29776 8.34936 5.26856 8.29079C5.23937 8.23245 5.2039 8.14687 5.16226 8.03426C5.12061 7.92164 5.0997 7.82783 5.0997 7.75265C5.0997 7.60255 5.21863 7.41054 5.45645 7.17689C5.69422 6.94337 5.95295 6.72216 6.23237 6.51372C6.51201 6.30527 6.77047 6.07574 7.00833 5.82551C7.24611 5.57516 7.36499 5.36667 7.36499 5.19982C7.36499 5.08309 7.3358 4.96407 7.27745 4.84312C7.21906 4.72191 7.12937 4.574 7.00833 4.3987C6.88725 4.22348 6.81426 4.11928 6.78919 4.08574C6.66417 3.8773 6.53498 3.65412 6.40132 3.4163C6.26766 3.17853 6.12177 2.91349 5.96316 2.62149C5.80469 2.32962 5.67962 2.10425 5.58774 1.94574C5.29587 1.36178 5.0748 1.04457 4.92457 0.994687C4.86613 0.969656 4.77846 0.957031 4.66177 0.957031C4.43635 0.957031 4.14229 0.998677 3.77936 1.08223C3.4163 1.16565 3.13062 1.25315 2.92199 1.34508C2.50479 1.52021 2.06261 2.02916 1.5953 2.87176C1.16977 3.65592 0.957031 4.43206 0.957031 5.19961C0.957031 5.42471 0.971629 5.64372 1.00082 5.85668C1.03002 6.06943 1.08219 6.30935 1.15737 6.5764C1.23242 6.84337 1.29296 7.04169 1.33872 7.17084C1.38453 7.30007 1.47006 7.53157 1.59526 7.86544C1.72028 8.19922 1.79546 8.40354 1.82049 8.47864C2.11249 9.29638 2.45877 10.0264 2.85922 10.6689C3.51809 11.7369 4.41724 12.8406 5.55613 13.9796C6.69507 15.1185 7.79854 16.0176 8.8666 16.6767C9.50903 17.0771 10.2393 17.4233 11.0569 17.7156C11.1321 17.7404 11.3364 17.8155 11.67 17.9409C12.0038 18.066 12.2354 18.1516 12.3646 18.1975C12.4939 18.2434 12.6923 18.304 12.959 18.3792C13.2263 18.4543 13.466 18.5065 13.6788 18.5359C13.8917 18.5647 14.1107 18.5796 14.3359 18.5796C15.1034 18.5796 15.8796 18.3667 16.6638 17.9412C17.5064 17.4741 18.0152 17.0318 18.1904 16.6143C18.2825 16.4059 18.3698 16.1201 18.4532 15.7571C18.5369 15.3942 18.5785 15.1002 18.5785 14.8748C18.5787 14.7576 18.5662 14.6702 18.541 14.6113Z" fill="#232B5B"/>
</svg>
