<svg width="20" height="14" viewBox="0 0 20 14" fill="none" xmlns="http://www.w3.org/2000/svg">
<path d="M13.1602 7.33458L18.9974 12.3378C19.1215 12.0534 19.1857 11.7465 19.1857 11.4362V3.49805L13.1602 7.33458Z" fill="#232B5B"/>
<path d="M10.4843 7.23827L19.1083 1.7497C18.982 1.26259 18.698 0.83099 18.3006 0.522245C17.9033 0.2135 17.4149 0.0449762 16.9117 0.0429688H3.23961C2.7364 0.0449762 2.24801 0.2135 1.85064 0.522245C1.45327 0.83099 1.16927 1.26259 1.04297 1.7497L9.66776 7.23827C9.78993 7.31549 9.93149 7.35648 10.076 7.35648C10.2205 7.35648 10.3621 7.31549 10.4843 7.23827Z" fill="#232B5B"/>
<path d="M0.957031 3.49805V11.4362C0.957313 11.746 1.02144 12.0524 1.1454 12.3363L6.98261 7.33458L0.957031 3.49805Z" fill="#232B5B"/>
<path d="M11.8269 8.18093L11.2953 8.52046C10.9291 8.75168 10.505 8.87441 10.072 8.87441C9.63897 8.87441 9.21483 8.75168 8.84872 8.52046L8.31703 8.18018C8.30563 8.19081 8.30108 8.20524 8.28968 8.21512L2.18359 13.4454C2.5062 13.6198 2.86662 13.7124 3.2333 13.7151H16.9054C17.2723 13.7124 17.633 13.6198 17.9558 13.4454L11.8543 8.21512C11.8421 8.20524 11.8376 8.19081 11.8269 8.18093Z" fill="#232B5B"/>
</svg>
