<svg width="17" height="22" viewBox="0 0 17 22" fill="none" xmlns="http://www.w3.org/2000/svg">
<path d="M0 8.54555C0 13.0744 7.61259 21.1078 7.93095 21.4279V21.4279C8.24473 21.7434 8.75527 21.7434 9.06905 21.4279V21.4279C9.38741 21.1078 17 13.0744 17 8.54555C17 4.01673 13.1957 0 8.5 0C3.80431 0 0 3.8247 0 8.54555ZM11.2896 8.35352C11.2896 9.8858 10.0201 11.158 8.5 11.158C6.97987 11.158 5.71044 9.8818 5.71044 8.35352C5.71044 6.82524 6.97987 5.54901 8.5 5.54901C10.0201 5.54901 11.2896 6.82524 11.2896 8.35352Z" fill="#232B5B"/>
</svg>
