<svg width="178" height="57" viewBox="0 0 178 57" fill="none" xmlns="http://www.w3.org/2000/svg">
<path d="M91.7431 50.9148C91.4833 52.9719 89.9103 54.3528 86.4323 54.3528C82.6223 54.3528 81.0781 52.6842 81.0781 50.2963C81.0781 47.9084 82.6223 46.2541 86.4323 46.2541C89.9103 46.2541 91.4833 47.6207 91.7431 49.6777H90.1989C89.9392 48.4982 88.8568 47.6926 86.4178 47.6926C83.6037 47.6926 82.5934 48.7715 82.5934 50.2963C82.5934 51.8211 83.6037 52.9 86.4178 52.9C88.8424 52.9 89.9392 52.0944 90.1989 50.9148H91.7431Z" fill="#23295B"/>
<path d="M103.723 50.2961C103.723 52.684 102.179 54.3382 98.3541 54.3382C94.5298 54.3382 93 52.6696 93 50.2961C93 47.9226 94.5442 46.2539 98.3541 46.2539C102.164 46.2539 103.723 47.9226 103.723 50.2961ZM102.193 50.2961C102.193 48.7713 101.168 47.6924 98.3541 47.6924C95.54 47.6924 94.5298 48.7713 94.5298 50.2961C94.5298 51.8209 95.54 52.8997 98.3541 52.8997C101.168 52.8997 102.193 51.8209 102.193 50.2961Z" fill="#23295B"/>
<path d="M115.904 52.5694L118.602 46.4414H120.219L116.842 54.1661H114.966L112.195 48.2971L109.409 54.1661H107.519L104.156 46.4414H105.773L108.471 52.5694L111.358 46.4414H113.017L115.904 52.5694Z" fill="#23295B"/>
<path d="M131.27 50.2961C131.27 52.684 129.725 54.3382 125.901 54.3382C122.077 54.3382 120.547 52.6696 120.547 50.2961C120.547 47.9226 122.091 46.2539 125.901 46.2539C129.711 46.2539 131.27 47.9226 131.27 50.2961ZM129.74 50.2961C129.74 48.7713 128.715 47.6924 125.901 47.6924C123.087 47.6924 122.077 48.7713 122.077 50.2961C122.077 51.8209 123.087 52.8997 125.901 52.8997C128.715 52.8997 129.74 51.8209 129.74 50.2961Z" fill="#23295B"/>
<path d="M134.428 54.1669H132.898V46.4422H134.428V48.5711C135.005 47.2045 136.362 46.2695 138.83 46.2695V47.7656C135.655 47.7656 134.428 49.1897 134.428 51.0597V54.1812V54.1669Z" fill="#23295B"/>
<path d="M148.745 46.4421H150.578L146.927 50.3116L150.578 54.1812H148.745L145.744 51.0165H141.717V54.1812H140.188V43.8672H141.717V49.6068H145.744L148.745 46.4421Z" fill="#23295B"/>
<path d="M153.698 44.1971C153.698 44.7293 153.395 45.0602 152.673 45.0602C151.951 45.0602 151.648 44.7293 151.648 44.1971C151.648 43.6648 151.951 43.334 152.673 43.334C153.395 43.334 153.698 43.6792 153.698 44.1971ZM151.908 54.1658V46.4411H153.438V54.1658H151.908Z" fill="#23295B"/>
<path d="M165.55 50.5557V54.1663H164.02V50.5557C164.02 49.0021 163.226 47.6356 160.658 47.6356C158.089 47.6356 157.021 48.9878 157.006 50.5269V54.1663H155.477V46.4416H157.006V48.2397C157.685 47.0314 159.056 46.2402 161.134 46.2402C164.366 46.2402 165.535 48.1247 165.535 50.5557H165.55Z" fill="#23295B"/>
<path d="M176.168 48.0369V46.4402H177.698V52.7552C177.698 55.3588 176.731 57.0131 171.882 57.0131C170.222 57.0131 168.851 56.7398 167.61 56.3658V54.9705C168.823 55.3876 170.136 55.6753 171.637 55.6753C175.476 55.6753 176.154 54.6252 176.154 52.7552V52.338C175.447 53.4457 174.047 54.1361 171.839 54.1361C168.433 54.1361 166.961 52.5106 166.961 50.1947C166.961 47.8787 168.419 46.2676 171.839 46.2676C174.047 46.2676 175.447 46.9437 176.154 48.0513L176.168 48.0369ZM176.168 50.2522C176.168 48.7706 175.144 47.7061 172.33 47.7061C169.515 47.7061 168.505 48.7706 168.505 50.2522C168.505 51.7338 169.515 52.7839 172.33 52.7839C175.144 52.7839 176.168 51.7338 176.168 50.2522Z" fill="#23295B"/>
<path d="M26.3654 17.6004V34.028C26.3654 37.466 25.3264 40.0552 23.2626 41.7814C21.069 43.6227 17.591 44.5433 12.843 44.5433C9.23506 44.5433 5.61272 43.8816 1.96151 42.5726V35.9987C5.41068 37.5379 8.70109 38.3003 11.8472 38.3003C14.1707 38.3003 15.8736 37.955 16.9271 37.2502C17.9373 36.5741 18.4425 35.4952 18.4425 34.028V33.7978C16.6385 35.4808 13.9975 36.3296 10.5339 36.3296C7.07032 36.3296 4.44376 35.4808 2.62537 33.7978C0.864706 32.1579 -0.015625 29.8276 -0.015625 26.8067C-0.015625 23.7859 0.864706 21.4555 2.62537 19.8013C4.44376 18.1182 7.08475 17.2695 10.5339 17.2695C13.9831 17.2695 16.6385 18.1182 18.4425 19.8013V17.6004H26.3654ZM13.1749 29.7556C16.6962 29.7556 18.4425 28.7631 18.4425 26.7923C18.4425 24.8216 16.6818 23.8291 13.1749 23.8291C9.66801 23.8291 7.90735 24.8216 7.90735 26.7923C7.90735 28.7631 9.66801 29.7556 13.1749 29.7556Z" fill="#23295B"/>
<path d="M56.7031 11.0254H64.6117V37.3066H56.7031V11.0254Z" fill="#23295B"/>
<path d="M85.044 11.0254H92.9526V37.3066H85.044V34.9044C83.2256 36.7169 80.5846 37.6375 77.1355 37.6375C73.6863 37.6375 71.0453 36.7456 69.2269 34.9475C67.4663 33.1926 66.5859 30.704 66.5859 27.453C66.5859 24.202 67.4663 21.7134 69.2269 19.9584C71.0453 18.1603 73.6863 17.2684 77.1355 17.2684C80.5846 17.2684 83.2256 18.1747 85.044 20.0016V11.0254ZM79.7765 31.0636C83.2978 31.0636 85.044 29.8553 85.044 27.453C85.044 25.0507 83.2834 23.8424 79.7765 23.8424C76.2696 23.8424 74.5089 25.0507 74.5089 27.453C74.5089 29.8553 76.2696 31.0636 79.7765 31.0636Z" fill="#23295B"/>
<path d="M122.953 17.5997V37.307H115.045V24.1592H107.136V37.307H99.2275V24.1592H94.6094V17.5853H99.2275C99.2275 14.7658 100.252 12.7951 102.287 11.7019C104.394 10.5798 108.204 10.0332 113.731 10.0332C114.944 10.0332 116.372 10.0764 118.046 10.1627C119.72 10.249 120.918 10.3497 121.64 10.4648V16.2475C121.048 16.1756 119.98 16.118 118.436 16.0461C116.892 15.9742 115.651 15.9454 114.713 15.9454C111.74 15.9454 109.763 16.0605 108.781 16.2763C107.858 16.492 107.338 16.938 107.237 17.5853H122.968L122.953 17.5997Z" fill="#23295B"/>
<path d="M137.777 32.0428C139.754 32.0428 141.067 31.9565 141.702 31.7839C142.164 31.6545 142.395 31.4099 142.395 31.0647C142.395 30.7194 142.178 30.4605 141.731 30.3023C141.096 30.1009 139.768 29.9714 137.777 29.9139C132.697 29.7556 129.276 29.1659 127.487 28.1445C125.986 27.2671 125.25 25.7279 125.25 23.5126C125.25 21.2973 126.13 19.8444 127.891 18.8806C129.868 17.8018 133.159 17.2695 137.777 17.2695C142.395 17.2695 145.613 17.8881 147.504 19.1396C149.149 20.2328 149.971 22.0166 149.971 24.4908H142.063C142.063 23.8291 141.803 23.3975 141.298 23.1817C140.75 22.966 139.566 22.8509 137.777 22.8509C135.8 22.8509 134.486 22.9372 133.851 23.1098C133.389 23.2393 133.159 23.4838 133.159 23.8291C133.159 24.1599 133.389 24.3757 133.851 24.4908C134.429 24.649 135.727 24.7497 137.777 24.8216C142.857 25.023 146.262 25.6272 148.023 26.6341C149.538 27.4828 150.303 29.022 150.303 31.2373C150.303 33.4526 149.423 34.9342 147.662 35.9412C145.656 37.0776 142.366 37.653 137.777 37.653C133.187 37.653 129.839 37.0344 127.891 35.7829C126.13 34.6609 125.25 32.8772 125.25 30.4317H133.159C133.159 31.1078 133.404 31.5538 133.88 31.7408C134.457 31.9565 135.742 32.0716 137.777 32.0716V32.0428Z" fill="#23295B"/>
<path d="M167.781 17.2684C171.115 17.2684 173.669 18.1315 175.43 19.8577C177.147 21.5408 177.998 23.9574 177.998 27.0933V37.3066H170.09V27.0933C170.09 24.8349 168.445 23.7129 165.14 23.7129C161.835 23.7129 160.19 24.8349 160.19 27.0933V37.3066H152.281V11.0254H160.19V19.8002C161.95 18.1172 164.476 17.2684 167.766 17.2684H167.781Z" fill="#23295B"/>
<path d="M4.06788 0.388672V2.57518H9.39316V3.97052H4.06788V6.83312C4.06788 8.25722 4.64515 9.04839 7.21398 9.04839C8.05102 9.04839 8.80146 8.96208 9.39316 8.81824V10.2423C8.64271 10.4293 7.8634 10.5013 6.80989 10.5013C3.47618 10.5013 2.53813 9.19224 2.53813 6.89066V3.97052H0.0703125V2.57518H2.53813V0.748295L4.06788 0.388672Z" fill="#23295B"/>
<path d="M21.0967 6.70337V10.314H19.567V6.70337C19.567 5.1498 18.7732 3.78323 16.2044 3.78323C13.6356 3.78323 12.5821 5.10665 12.5532 6.64583V10.314H11.0234V0H12.5532V4.37302C13.2459 3.17907 14.6025 2.3879 16.6806 2.3879C19.9133 2.3879 21.0823 4.27232 21.0823 6.70337H21.0967Z" fill="#23295B"/>
<path d="M33.245 6.44451C33.245 6.63151 33.245 6.80413 33.1872 6.96236H24.0809C24.2107 8.31455 25.3076 9.27834 27.862 9.27834C29.8102 9.27834 30.907 8.73171 31.3833 7.86861H32.9996C32.4512 9.47973 30.8637 10.5011 27.862 10.5011C24.052 10.5011 22.5078 8.8324 22.5078 6.45889C22.5078 4.08538 24.052 2.40234 27.862 2.40234C31.6719 2.40234 33.2305 4.07099 33.2305 6.45889L33.245 6.44451ZM24.0953 5.91226H31.6719C31.542 4.57447 30.4452 3.61068 27.8908 3.61068C25.3364 3.61068 24.2396 4.57447 24.1097 5.91226H24.0953Z" fill="#23295B"/>
<path d="M41.5613 17.2695C45.8764 17.2695 49.1668 18.1614 51.4325 19.9595C53.6262 21.7145 54.723 24.2031 54.723 27.4541C54.723 30.705 53.6262 33.1936 51.4325 34.9486C49.1812 36.7467 45.8908 37.6386 41.5613 37.6386C37.2318 37.6386 33.9702 36.7467 31.7045 34.9486C29.5109 33.1936 28.4141 30.705 28.4141 27.4541C28.4141 24.2031 29.5109 21.7145 31.7045 19.9595C33.9847 18.1614 37.2751 17.2695 41.5613 17.2695ZM41.5613 31.0647C45.0682 31.0647 46.8288 29.8563 46.8288 27.4541C46.8288 25.0518 45.0682 23.8434 41.5613 23.8434C38.0544 23.8434 36.2937 25.0518 36.2937 27.4541C36.2937 29.8563 38.04 31.0647 41.5613 31.0647Z" fill="#23295B"/>
</svg>
