<svg width="52" height="40" viewBox="0 0 52 40" fill="none" xmlns="http://www.w3.org/2000/svg">
<path d="M44.6306 5.29378C40.2454 1.7684 33.876 0 25.5 0C17.124 0 10.7997 1.7684 6.38064 5.29378C2.13064 8.72789 0 13.6338 0 20C0 26.3662 2.13064 31.2721 6.38064 34.7062C10.7997 38.2316 17.1804 40 25.5113 40C33.8422 40 40.2566 38.2316 44.6419 34.7062C48.8919 31.2607 51.0225 26.3662 51.0225 20C51.0225 13.6338 48.8919 8.72789 44.6419 5.29378H44.6306ZM41.6771 11.9452C41.5869 12.3902 41.4854 12.8237 41.3614 13.2573C40.9668 14.6035 40.3355 15.8243 39.4675 16.931C39.3548 17.0679 39.321 17.2276 39.4111 17.3873C39.5239 17.5927 39.6028 17.8095 39.6704 18.0377C40.2454 19.943 39.9184 21.6999 38.746 23.32C38.6671 23.4227 38.622 23.5596 38.4416 23.5824C38.5093 23.1603 38.5206 22.761 38.5093 22.3617C38.498 21.9624 38.4642 21.5744 38.3853 21.1865C38.3064 20.7872 38.2275 20.3993 38.126 20.0114C38.0245 19.6349 37.9569 19.247 37.7427 18.9047C37.7089 18.939 37.7089 18.9618 37.7202 18.9846C37.8893 20.194 37.6074 21.3349 37.1001 22.4415C36.4914 23.765 35.6346 24.9173 34.6313 25.9555C34.2706 26.332 33.8534 26.6286 33.3574 26.7998C33.132 26.8796 32.9065 26.9709 32.6134 26.9025C33.3687 26.0011 33.5265 24.9857 33.4927 23.9019C33.4702 23.2744 33.3462 22.6469 33.3123 22.0194C33.3011 21.7114 33.4025 21.4261 33.6393 21.1979C33.6956 21.1409 33.8873 20.9698 33.752 20.9698C28.9834 20.9241 29.5696 23.5482 29.7162 24.2556C29.8515 25.2481 29.7162 26.5031 29.13 27.9064C28.3859 29.4581 27.5179 30.1997 26.2328 31.2835C25.252 32.105 24.1698 32.7781 22.9523 33.1888C22.1631 33.4512 21.3627 33.5995 20.5285 33.5767C20.3481 33.5767 20.1565 33.5425 20.055 33.3485C19.9536 33.166 20.0099 33.0633 20.2241 33.0519C20.8216 33.0291 21.4078 32.915 21.9489 32.6298C23.2679 31.9224 23.8879 30.8272 23.8203 29.3326C23.7977 28.8192 23.7188 28.2944 23.933 27.7809C23.4145 27.8038 23.2454 27.5984 23.1101 27.1078C23.0875 27.0165 23.0763 26.9139 23.0537 26.8112C22.9184 26.1495 22.6253 25.9327 21.9489 26.0126C21.2049 26.1038 20.4721 26.2293 19.7394 26.3206C19.2321 26.3776 18.7248 26.5145 18.2175 26.4689C17.8342 26.4347 17.496 26.1837 17.4284 25.8985C17.3758 25.6855 17.2518 25.6246 17.0564 25.7159C17.0564 25.7159 17.0113 25.7387 16.9887 25.7501C15.9967 26.1152 14.9934 26.4689 13.9675 26.7085C13.4264 26.834 12.8853 27.0394 12.3103 26.9937C11.8707 26.9595 11.7241 26.7884 11.758 26.332C11.8031 25.8642 11.5099 25.6931 11.1379 25.7273C10.6306 25.773 10.1684 25.9213 9.7626 26.2521C9.22148 26.6743 8.78183 27.1877 8.39854 27.7467C8.24072 27.9749 8.12798 27.9749 8.00398 27.7239C7.98143 27.6669 7.97016 27.6098 7.94761 27.5528C7.68833 26.583 7.83488 25.6361 8.1618 24.7119C11.9271 15.1854 27.4164 17.1363 23.7527 14.7176C23.2115 13.9875 23.1326 13.1318 23.2792 12.2533C23.4821 11.0211 24.1585 10.0285 24.88 9.04735C25.3084 8.4769 25.748 7.91786 26.0637 7.27895C26.447 6.49173 26.6048 5.68169 26.2891 4.83742C26.2779 4.79179 26.2215 4.74615 26.2666 4.70051C26.3117 4.65488 26.3793 4.6891 26.4357 4.70051C27.1233 4.88306 27.7885 5.13406 28.4085 5.46492C29.3103 5.9441 30.1107 6.54877 30.7984 7.30177C31.2944 7.83799 31.7341 8.40844 32.061 9.07017C32.1174 9.18426 32.185 9.25271 32.3316 9.25271C33.4589 9.26412 34.5411 9.50371 35.6459 9.68625C36.4012 9.82316 37.1565 9.9943 37.9231 10.0856C38.9602 10.2111 39.9748 10.3822 40.9781 10.6674C41.3952 10.7815 41.4967 10.9641 41.4178 11.3976C41.4065 11.4775 41.3727 11.5573 41.4854 11.5687C41.7447 11.5801 41.7334 11.7627 41.6883 11.9338L41.6771 11.9452Z" fill="white"/>
<path d="M37.4834 11.2151C37.0325 11.2151 36.6605 11.5916 36.6605 12.0479C36.6605 12.5043 37.0325 12.8808 37.4834 12.8808C37.9343 12.8808 38.3064 12.5043 38.3064 12.0479C38.3064 11.5916 37.9343 11.2151 37.4834 11.2151Z" fill="white"/>
</svg>
