<svg xmlns="http://www.w3.org/2000/svg" width="190" height="29" viewBox="0 0 190 29">
  <defs>
    <style>
      .cls-1 {
        fill: #4c4f69;
        fill-rule: evenodd;
      }
    </style>
  </defs>
  <path id="Заливка_цветом_1" data-name="Заливка цветом 1" class="cls-1" d="M33.155,16.775c-1.421,1.318-4.476,2.083-7.315,1.659a6.088,6.088,0,0,1-5.6-5.4c-0.5-2.99.582-7.866,6.7-7.866,5.156,0,6.223,1.8,6.223,1.8V5.355h5.557V16.917c0,2.388-.43,6.942-8.455,7.44-3.261.2-8.692-1.422-8.692-1.422v-4.6s4.4,2.06,7.743,1.611C33.252,19.42,32.978,18.316,33.155,16.775ZM25.745,11.8c0,1.813,2.034,2.132,3.657,2.132s3.753-.307,3.753-2.038S31.61,9.714,29.5,9.714,25.745,10.124,25.745,11.8Zm23.607,7.677c5.906,0,9.31-2.7,9.31-6.681s-1.99-7.724-9.12-7.724-9.4,3.659-9.4,7.013S41.762,19.476,49.353,19.476ZM45.7,12.226c0,2.408,2.4,2.606,3.563,2.606s3.847-.085,3.847-2.369-1.55-2.748-3.752-2.748S45.7,10.416,45.7,12.226Zm14.392,7.013h5.557V0.758H60.088v18.48Zm19.95-1.658s-1.821,2.112-6.317,1.848-6.711-2.945-6.7-7.2,2.6-7.2,7.268-7.155,5.747,2.038,5.747,2.038V0.663h5.51V19.239h-5.51V17.58ZM72.58,12.226c0,2.408,2.4,2.606,3.563,2.606s3.895-.085,3.895-2.369-1.6-2.748-3.8-2.748S72.58,10.416,72.58,12.226ZM95.665,5.355h11.02V19.239h-5.558V10H95.57v9.193h-5.6V9.951h-3.23v-4.6h3.278S89.5,1.01,94.763.379A44.3,44.3,0,0,1,105.735.332V4.407a68.412,68.412,0,0,0-7.6-.19C95.486,4.374,95.665,5.355,95.665,5.355Zm24.51,4.833h5.558s0.482-3.968-4.228-4.739a24.978,24.978,0,0,0-9.738.19,3.824,3.824,0,0,0-3.42,4.028,3.51,3.51,0,0,0,3.041,3.649,45,45,0,0,0,8.122.853c1.217,0.067,1.2,1.2,0,1.279a33.152,33.152,0,0,1-4.465,0c-0.8-.135-1.091-0.167-1.14-1.042h-5.558a4.485,4.485,0,0,0,3.753,4.549,26.565,26.565,0,0,0,10.4-.047c2.874-.688,3.468-2.32,3.468-4.028s-0.642-3.343-3.8-3.886a69.571,69.571,0,0,0-7.457-.711c-1.274-.111-0.915-1.133.1-1.185a33.456,33.456,0,0,1,4.322,0A1.022,1.022,0,0,1,120.175,10.188Zm12.73,9.051h-5.558V0.711h5.51v6.3s1.479-1.983,5.511-1.9,7.03,2.074,7.03,6.113v7.961h-5.511V12.226c0-2.123-1.567-2.656-3.514-2.606s-3.468.334-3.468,2.748v6.871Zm21.809-4.881c0,11.4,10.006,13.6,18.186,13.6S190,24.875,190,14.69,182.34,0.711,172.52.711,154.714,4.21,154.714,14.358ZM1.283,7.392H0V6.634H1.283V5.686L2.09,5.5V6.634H4.845V7.392H2.09V8.956c0,0.759.4,1.088,1.425,1.09a6.068,6.068,0,0,0,1.378-.095v0.758a7.68,7.68,0,0,1-1.567.095c-1.287,0-2.043-.484-2.043-1.9V7.392Zm5.273,3.317H5.748V5.355H6.555V7.582s0.392-1,2.138-1,2.28,1.044,2.28,1.9v2.274H10.165V8.529A1.468,1.468,0,0,0,8.6,7.3c-1.706,0-2.043.865-2.043,1.232v2.18ZM17.243,9.43S17.071,10.8,14.535,10.8s-2.8-1.3-2.8-2.227,0.685-2.038,2.85-2.038,2.755,1.279,2.755,1.9V8.956h-4.8s0.031,1.263,2,1.232c1.723-.027,1.8-0.758,1.8-0.758h0.9Zm-4.7-1.042h3.943S16.516,7.2,14.535,7.2,12.54,8.387,12.54,8.387Zm90.3,19.239c1.646,0,2.8-.673,2.8-1.99s-0.656-2.274-2.8-2.274-2.85.942-2.85,2.132S100.794,27.626,102.838,27.626Zm-0.048-.806c1.315,0,2.042-.336,2.042-1.327s-0.761-1.374-1.994-1.374-1.995.341-1.995,1.374S101.475,26.82,102.79,26.82Zm-4.213-1.658c-0.158-.746-0.877-1.043-1.962-1.043-1.233,0-1.995.341-1.995,1.374s0.632,1.327,1.947,1.327c1.156,0,1.858-.259,2.011-1h0.83c-0.189,1.262-1.228,1.8-2.793,1.8-2.043,0-2.85-.942-2.85-2.132s0.7-2.132,2.85-2.132c1.88,0,2.616.734,2.77,1.8H98.577Zm8.678-.758V23.456H106.5v4.075h0.76V25.588c0-.17.1-1.516,1.948-1.516a1.459,1.459,0,0,1,1.709,1.469v1.99h0.808v-1.99a1.911,1.911,0,0,0-1.33-2.038A2.765,2.765,0,0,0,107.255,24.4Zm6.032,1.848s-0.123.615,0.76,0.711a9.046,9.046,0,0,0,2.281-.047c0.769-.117.722-0.965-0.048-1.043-0.588-.059-1.825-0.067-2.565-0.142a1.138,1.138,0,1,1,0-2.274,10.929,10.929,0,0,1,2.707,0,1.245,1.245,0,0,1,1.188,1.279H116.8a0.64,0.64,0,0,0-.617-0.663,7.766,7.766,0,0,0-2.375,0,0.522,0.522,0,0,0,.048,1.043c0.784,0.1,2.093.059,2.8,0.189a1.043,1.043,0,0,1,1,1.09,1.059,1.059,0,0,1-1.14,1.137,10.389,10.389,0,0,1-2.944-.047,1.2,1.2,0,0,1-1.093-1.232h0.807Zm9.548,0.335v0.949h0.807V23.456h-0.807V25.4c0,0.17-.1,1.518-1.947,1.518a1.461,1.461,0,0,1-1.711-1.471V23.456H118.37v1.992a1.963,1.963,0,0,0,1.378,2.04A2.691,2.691,0,0,0,122.835,26.587Zm1.853-4.41H125.5v5.354h-0.807V22.177Zm2.85,2.038h-1.283V23.456h1.283V22.508l0.807-.19v1.137H131.1v0.758h-2.755v1.564c0,0.759.4,1.088,1.425,1.09a4.164,4.164,0,0,0,1.378-.142v0.758a6.8,6.8,0,0,1-1.521.095c-1.287,0-2.089-.437-2.089-1.848V24.214ZM132,23.5h0.76v4.028H132V23.5Zm0.38-.758a0.437,0.437,0,0,0,.523-0.474,0.432,0.432,0,0,0-.523-0.426A0.455,0.455,0,1,0,132.382,22.745Zm2.233,1.659V23.456h-0.76v4.075h0.76V25.588c0-.17.1-1.516,1.947-1.516a1.46,1.46,0,0,1,1.711,1.469v1.99h0.807v-1.99a1.911,1.911,0,0,0-1.33-2.038A2.765,2.765,0,0,0,134.615,24.4Zm10.83-.948h-0.808v0.805s-0.517-.9-2.375-0.9-2.422,1.121-2.422,2.038,0.545,2.132,2.565,2.132a2.367,2.367,0,0,0,2.232-.948s0.439,1.739-1.852,1.706c-2.16-.031-2.612-0.379-2.612-0.379v0.758S140.61,29,142.785,29s2.66-1.088,2.66-1.8V23.456Zm-0.808,1.99c0-.723-0.4-1.327-2.089-1.327s-1.9.934-1.9,1.327,0.084,1.327,2,1.327C144.279,26.773,144.637,26.17,144.637,25.446Zm15.77-5.734c-0.711-.269-0.288-3.506,2.565-5.4,3.862-2.566,8.1-2.3,8.5-3.08,0.239-.469-0.7-0.266-0.713-1.611-0.016-2.72,2.848-3.4,2.09-5.639-0.119-.352,2.474.357,4.086,3.033a19.846,19.846,0,0,1,3.562.474c2.632,0.456,3.023.4,2.8,1.09,0.241-.064.5-0.046-0.285,1.99a12.5,12.5,0,0,1-1.093,1.8,4.1,4.1,0,0,1-.522,4.407c-0.267.308,0.438-1.325-.618-3.175a5.272,5.272,0,0,1-1,3.459c-0.95,1.405-1.816,2.073-2.517,1.943,1.059-1.206.375-2.952,0.475-3.506a1.01,1.01,0,0,1,.333-0.474s-2.016-.329-2.708.948,0.843,1.956-1.187,4.739a7.015,7.015,0,0,1-5.415,2.89c-0.206,0-.371-0.368-0.143-0.379a2.48,2.48,0,0,0,2.423-1.564c0.3-.88.008-1.833,0.19-1.943-0.915-.1-0.234-0.947-0.856-1.185s-2.191.237-3.134,0.237c-0.5,0-.326-0.542-0.665-0.569-0.147-.012-2.467,1.066-3.563.9-0.447-.068.1-0.773-0.475-0.853C162.207,18.2,161.313,18.451,160.407,19.712Z"/>
</svg>
