<svg xmlns="http://www.w3.org/2000/svg" xmlns:xlink="http://www.w3.org/1999/xlink"><symbol id="icon-arr-down" viewBox="0 0 14 8"><path d="M13.7 1.7l-6 6c-.2.2-.4.3-.7.3-.3 0-.5-.1-.7-.3l-6-6C-.1 1.3-.1.7.3.3c.4-.4 1-.4 1.4 0L7 5.6 12.3.3c.4-.4 1-.4 1.4 0 .4.4.4 1 0 1.4z"/></symbol><symbol id="icon-arr-left" viewBox="0 0 17 28"><path d="M15.747 24.158c.784.767.784 1.917 0 2.684-.392.383-.783.575-1.37.575-.588 0-.98-.192-1.372-.575l-11.75-11.5c-.783-.767-.783-1.917 0-2.684l11.75-11.5c.784-.766 1.959-.766 2.742 0 .784.767.784 1.917 0 2.684L5.368 14l10.38 10.158z"/></symbol><symbol id="icon-arr-right" viewBox="0 0 17 28"><path d="M15.747 15.342l-11.75 11.5c-.392.383-.783.575-1.37.575-.588 0-.98-.192-1.372-.575-.783-.767-.783-1.917 0-2.684L11.635 14 1.255 3.842c-.783-.767-.783-1.917 0-2.684.784-.766 1.959-.766 2.742 0l11.75 11.5c.784.767.784 1.917 0 2.684z"/></symbol><symbol id="icon-arr-up" viewBox="0 0 14 8"><path d="M.3 6.3l6-6c.2-.2.4-.3.7-.3.3 0 .5.1.7.3l6 6c.4.4.4 1 0 1.4-.4.4-1 .4-1.4 0L7 2.4 1.7 7.7c-.4.4-1 .4-1.4 0-.4-.4-.4-1 0-1.4z"/></symbol><symbol id="icon-back" viewBox="0 0 18 13"><path d="M7.43 3.567a.513.513 0 01-.43-.5V.706a.5.5 0 00-.854-.353L.354 6.146a.5.5 0 000 .708l5.792 5.792A.5.5 0 007 12.293V9.9c0-.276.224-.5.5-.495 3.818.085 6.735 1.146 8.988 3.327.387.375 1.087.028.916-.482-1.366-4.066-4.312-7.718-9.973-8.683z"/></symbol><symbol id="icon-close" viewBox="0 0 21 21"><path d="M.88 19.39a1 1 0 010-1.414L17.976.882a1 1 0 011.414 0l.812.812a1 1 0 010 1.414L3.107 20.203a1 1 0 01-1.414 0L.88 19.39z"/><path d="M19.387 20.203a1 1 0 01-1.414 0L.879 3.108a1 1 0 010-1.414L1.69.882a1 1 0 011.414 0L20.2 17.976a1 1 0 010 1.414l-.813.813z"/></symbol><symbol id="icon-geo" viewBox="0 0 17 22"><path d="M0 8.546c0 4.528 7.613 12.562 7.931 12.882a.803.803 0 001.138 0C9.387 21.108 17 13.074 17 8.546 17 4.016 13.196 0 8.5 0S0 3.825 0 8.546zm11.29-.192c0 1.532-1.27 2.804-2.79 2.804S5.71 9.882 5.71 8.354c0-1.529 1.27-2.805 2.79-2.805s2.79 1.276 2.79 2.805z"/></symbol><symbol id="icon-mail" viewBox="0 0 20 14"><path d="M13.16 7.335l5.837 5.003c.125-.285.189-.591.189-.902V3.498L13.16 7.335zM10.484 7.238l8.624-5.488A2.279 2.279 0 0016.912.043H3.24A2.279 2.279 0 001.043 1.75l8.625 5.488a.764.764 0 00.816 0zM.957 3.498v7.938c0 .31.064.616.188.9l5.838-5.001L.957 3.498zM11.827 8.18l-.532.34a2.291 2.291 0 01-2.446 0l-.532-.34c-.011.01-.016.025-.027.035l-6.106 5.23c.322.175.683.267 1.05.27h13.671a2.245 2.245 0 001.05-.27l-6.1-5.23c-.013-.01-.017-.024-.028-.034z"/></symbol><symbol id="icon-menu" viewBox="0 0 21 15"><rect width="21" height="3" rx="1"/><rect y="6" width="21" height="3" rx="1"/><rect y="12" width="21" height="3" rx="1"/></symbol><symbol id="icon-phone" viewBox="0 0 19 19"><path d="M18.541 14.611c-.05-.15-.367-.371-.951-.663a29.745 29.745 0 00-.676-.376 61.364 61.364 0 01-.794-.438 26.5 26.5 0 01-.67-.388 16.48 16.48 0 00-.313-.219 3.517 3.517 0 00-.444-.269.82.82 0 00-.357-.087c-.167 0-.375.119-.626.356a6.09 6.09 0 00-.688.777c-.208.28-.43.538-.663.775-.234.238-.426.357-.576.357a.851.851 0 01-.281-.062 2.916 2.916 0 01-.257-.106 4.696 4.696 0 01-.3-.176 7.97 7.97 0 00-.238-.144c-1.143-.634-2.124-1.36-2.942-2.178-.817-.817-1.543-1.798-2.177-2.941a7.255 7.255 0 00-.144-.238 4.512 4.512 0 01-.175-.3 2.712 2.712 0 01-.107-.257.847.847 0 01-.062-.281c0-.15.119-.342.356-.576.238-.234.497-.455.776-.663a6.09 6.09 0 00.776-.688c.238-.25.357-.46.357-.626a.817.817 0 00-.088-.357 3.478 3.478 0 00-.269-.444c-.12-.176-.194-.28-.219-.313a27.488 27.488 0 01-.388-.67 63.24 63.24 0 01-.438-.795 29.751 29.751 0 00-.375-.675c-.292-.584-.513-.901-.663-.951a.7.7 0 00-.263-.038c-.226 0-.52.042-.883.125-.363.084-.648.171-.857.263-.417.175-.86.684-1.327 1.527C1.17 3.656.957 4.432.957 5.2c0 .225.015.444.044.657a5.4 5.4 0 00.156.72c.075.266.136.465.182.594.046.13.131.36.256.694.125.334.2.539.225.614.292.817.639 1.547 1.04 2.19.658 1.068 1.557 2.172 2.696 3.31 1.14 1.14 2.243 2.039 3.31 2.698.643.4 1.373.746 2.19 1.039.076.024.28.1.614.225.334.125.565.21.695.257.129.045.327.106.594.181.267.075.507.127.72.157.213.029.432.044.657.044.767 0 1.544-.213 2.328-.639.842-.467 1.351-.91 1.526-1.327.092-.208.18-.494.263-.857.084-.363.125-.657.125-.882a.698.698 0 00-.037-.264z"/></symbol><symbol id="icon-play" viewBox="0 0 18 21"><path d="M16.27 7.978c1.835 1.181 1.835 3.863 0 5.044L5.313 20.08C3.315 21.366.688 19.933.688 17.558V3.443C.688 1.068 3.315-.365 5.312.92L16.27 7.978z"/></symbol><symbol id="icon-select-down" viewBox="0 0 8 6"><path d="M4.71 4.782a1 1 0 01-1.42 0L.49 1.953C-.135 1.322.312.25 1.2.25h5.6c.888 0 1.335 1.072.71 1.703l-2.8 2.829z"/></symbol><symbol id="icon-tgm" viewBox="0 0 22 19"><path d="M19.351 1.154L.861 8.25c-.743.33-.995.992-.18 1.351l4.744 1.5 11.469-7.054c.626-.442 1.267-.324.716.163l-9.85 8.875-.31 3.757c.287.58.811.582 1.146.294l2.725-2.566 4.668 3.478c1.084.639 1.674.227 1.907-.944l3.061-14.426c.318-1.441-.224-2.076-1.606-1.524z"/></symbol> <view id="icon-arr-down-view-orange" viewBox="0 0 14 8" preserveAspectRatio="none"/><view id="icon-arr-down-view-accent" viewBox="0 18 14 8" preserveAspectRatio="none"/><view id="icon-arr-down-view-white" viewBox="0 36 14 8" preserveAspectRatio="none"/><view id="icon-arr-down-view-dark" viewBox="0 54 14 8" preserveAspectRatio="none"/><view id="icon-arr-left-view-orange" viewBox="0 72 17 28" preserveAspectRatio="none"/><view id="icon-arr-left-view-accent" viewBox="0 110 17 28" preserveAspectRatio="none"/><view id="icon-arr-left-view-white" viewBox="0 148 17 28" preserveAspectRatio="none"/><view id="icon-arr-left-view-dark" viewBox="0 186 17 28" preserveAspectRatio="none"/><view id="icon-arr-right-view-orange" viewBox="0 224 17 28" preserveAspectRatio="none"/><view id="icon-arr-right-view-accent" viewBox="0 262 17 28" preserveAspectRatio="none"/><view id="icon-arr-right-view-white" viewBox="0 300 17 28" preserveAspectRatio="none"/><view id="icon-arr-right-view-dark" viewBox="0 338 17 28" preserveAspectRatio="none"/><view id="icon-arr-up-view-orange" viewBox="0 376 14 8" preserveAspectRatio="none"/><view id="icon-arr-up-view-accent" viewBox="0 394 14 8" preserveAspectRatio="none"/><view id="icon-arr-up-view-white" viewBox="0 412 14 8" preserveAspectRatio="none"/><view id="icon-arr-up-view-dark" viewBox="0 430 14 8" preserveAspectRatio="none"/><view id="icon-back-view-orange" viewBox="0 448 18 13" preserveAspectRatio="none"/><view id="icon-back-view-accent" viewBox="0 471 18 13" preserveAspectRatio="none"/><view id="icon-back-view-white" viewBox="0 494 18 13" preserveAspectRatio="none"/><view id="icon-back-view-dark" viewBox="0 517 18 13" preserveAspectRatio="none"/><view id="icon-close-view-orange" viewBox="0 540 21 21" preserveAspectRatio="none"/><view id="icon-close-view-accent" viewBox="0 571 21 21" preserveAspectRatio="none"/><view id="icon-close-view-white" viewBox="0 602 21 21" preserveAspectRatio="none"/><view id="icon-close-view-dark" viewBox="0 633 21 21" preserveAspectRatio="none"/><view id="icon-geo-view-orange" viewBox="0 664 17 22" preserveAspectRatio="none"/><view id="icon-geo-view-accent" viewBox="0 696 17 22" preserveAspectRatio="none"/><view id="icon-geo-view-white" viewBox="0 728 17 22" preserveAspectRatio="none"/><view id="icon-geo-view-dark" viewBox="0 760 17 22" preserveAspectRatio="none"/><view id="icon-mail-view-orange" viewBox="0 792 20 14" preserveAspectRatio="none"/><view id="icon-mail-view-accent" viewBox="0 816 20 14" preserveAspectRatio="none"/><view id="icon-mail-view-white" viewBox="0 840 20 14" preserveAspectRatio="none"/><view id="icon-mail-view-dark" viewBox="0 864 20 14" preserveAspectRatio="none"/><view id="icon-menu-view-orange" viewBox="0 888 21 15" preserveAspectRatio="none"/><view id="icon-menu-view-accent" viewBox="0 913 21 15" preserveAspectRatio="none"/><view id="icon-menu-view-white" viewBox="0 938 21 15" preserveAspectRatio="none"/><view id="icon-menu-view-dark" viewBox="0 963 21 15" preserveAspectRatio="none"/><view id="icon-phone-view-orange" viewBox="0 988 19 19" preserveAspectRatio="none"/><view id="icon-phone-view-accent" viewBox="0 1017 19 19" preserveAspectRatio="none"/><view id="icon-phone-view-white" viewBox="0 1046 19 19" preserveAspectRatio="none"/><view id="icon-phone-view-dark" viewBox="0 1075 19 19" preserveAspectRatio="none"/><view id="icon-play-view-orange" viewBox="0 1104 18 21" preserveAspectRatio="none"/><view id="icon-play-view-accent" viewBox="0 1135 18 21" preserveAspectRatio="none"/><view id="icon-play-view-white" viewBox="0 1166 18 21" preserveAspectRatio="none"/><view id="icon-play-view-dark" viewBox="0 1197 18 21" preserveAspectRatio="none"/><view id="icon-select-down-view-orange" viewBox="0 1228 8 6" preserveAspectRatio="none"/><view id="icon-select-down-view-accent" viewBox="0 1244 8 6" preserveAspectRatio="none"/><view id="icon-select-down-view-white" viewBox="0 1260 8 6" preserveAspectRatio="none"/><view id="icon-select-down-view-dark" viewBox="0 1276 8 6" preserveAspectRatio="none"/><view id="icon-tgm-view-orange" viewBox="0 1292 22 19" preserveAspectRatio="none"/><view id="icon-tgm-view-accent" viewBox="0 1321 22 19" preserveAspectRatio="none"/><view id="icon-tgm-view-white" viewBox="0 1350 22 19" preserveAspectRatio="none"/><view id="icon-tgm-view-dark" viewBox="0 1379 22 19" preserveAspectRatio="none"/> <use xlink:href="#icon-arr-down" x="0" y="0" width="14" height="8" style="fill:#FFC939"/><use xlink:href="#icon-arr-down" x="0" y="18" width="14" height="8" style="fill:#32BFC6"/><use xlink:href="#icon-arr-down" x="0" y="36" width="14" height="8" style="fill:#ffffff"/><use xlink:href="#icon-arr-down" x="0" y="54" width="14" height="8" style="fill:#232b5b"/><use xlink:href="#icon-arr-left" x="0" y="72" width="17" height="28" style="fill:#FFC939"/><use xlink:href="#icon-arr-left" x="0" y="110" width="17" height="28" style="fill:#32BFC6"/><use xlink:href="#icon-arr-left" x="0" y="148" width="17" height="28" style="fill:#ffffff"/><use xlink:href="#icon-arr-left" x="0" y="186" width="17" height="28" style="fill:#232b5b"/><use xlink:href="#icon-arr-right" x="0" y="224" width="17" height="28" style="fill:#FFC939"/><use xlink:href="#icon-arr-right" x="0" y="262" width="17" height="28" style="fill:#32BFC6"/><use xlink:href="#icon-arr-right" x="0" y="300" width="17" height="28" style="fill:#ffffff"/><use xlink:href="#icon-arr-right" x="0" y="338" width="17" height="28" style="fill:#232b5b"/><use xlink:href="#icon-arr-up" x="0" y="376" width="14" height="8" style="fill:#FFC939"/><use xlink:href="#icon-arr-up" x="0" y="394" width="14" height="8" style="fill:#32BFC6"/><use xlink:href="#icon-arr-up" x="0" y="412" width="14" height="8" style="fill:#ffffff"/><use xlink:href="#icon-arr-up" x="0" y="430" width="14" height="8" style="fill:#232b5b"/><use xlink:href="#icon-back" x="0" y="448" width="18" height="13" style="fill:#FFC939"/><use xlink:href="#icon-back" x="0" y="471" width="18" height="13" style="fill:#32BFC6"/><use xlink:href="#icon-back" x="0" y="494" width="18" height="13" style="fill:#ffffff"/><use xlink:href="#icon-back" x="0" y="517" width="18" height="13" style="fill:#232b5b"/><use xlink:href="#icon-close" x="0" y="540" width="21" height="21" style="fill:#FFC939"/><use xlink:href="#icon-close" x="0" y="571" width="21" height="21" style="fill:#32BFC6"/><use xlink:href="#icon-close" x="0" y="602" width="21" height="21" style="fill:#ffffff"/><use xlink:href="#icon-close" x="0" y="633" width="21" height="21" style="fill:#232b5b"/><use xlink:href="#icon-geo" x="0" y="664" width="17" height="22" style="fill:#FFC939"/><use xlink:href="#icon-geo" x="0" y="696" width="17" height="22" style="fill:#32BFC6"/><use xlink:href="#icon-geo" x="0" y="728" width="17" height="22" style="fill:#ffffff"/><use xlink:href="#icon-geo" x="0" y="760" width="17" height="22" style="fill:#232b5b"/><use xlink:href="#icon-mail" x="0" y="792" width="20" height="14" style="fill:#FFC939"/><use xlink:href="#icon-mail" x="0" y="816" width="20" height="14" style="fill:#32BFC6"/><use xlink:href="#icon-mail" x="0" y="840" width="20" height="14" style="fill:#ffffff"/><use xlink:href="#icon-mail" x="0" y="864" width="20" height="14" style="fill:#232b5b"/><use xlink:href="#icon-menu" x="0" y="888" width="21" height="15" style="fill:#FFC939"/><use xlink:href="#icon-menu" x="0" y="913" width="21" height="15" style="fill:#32BFC6"/><use xlink:href="#icon-menu" x="0" y="938" width="21" height="15" style="fill:#ffffff"/><use xlink:href="#icon-menu" x="0" y="963" width="21" height="15" style="fill:#232b5b"/><use xlink:href="#icon-phone" x="0" y="988" width="19" height="19" style="fill:#FFC939"/><use xlink:href="#icon-phone" x="0" y="1017" width="19" height="19" style="fill:#32BFC6"/><use xlink:href="#icon-phone" x="0" y="1046" width="19" height="19" style="fill:#ffffff"/><use xlink:href="#icon-phone" x="0" y="1075" width="19" height="19" style="fill:#232b5b"/><use xlink:href="#icon-play" x="0" y="1104" width="18" height="21" style="fill:#FFC939"/><use xlink:href="#icon-play" x="0" y="1135" width="18" height="21" style="fill:#32BFC6"/><use xlink:href="#icon-play" x="0" y="1166" width="18" height="21" style="fill:#ffffff"/><use xlink:href="#icon-play" x="0" y="1197" width="18" height="21" style="fill:#232b5b"/><use xlink:href="#icon-select-down" x="0" y="1228" width="8" height="6" style="fill:#FFC939"/><use xlink:href="#icon-select-down" x="0" y="1244" width="8" height="6" style="fill:#32BFC6"/><use xlink:href="#icon-select-down" x="0" y="1260" width="8" height="6" style="fill:#ffffff"/><use xlink:href="#icon-select-down" x="0" y="1276" width="8" height="6" style="fill:#232b5b"/><use xlink:href="#icon-tgm" x="0" y="1292" width="22" height="19" style="fill:#FFC939"/><use xlink:href="#icon-tgm" x="0" y="1321" width="22" height="19" style="fill:#32BFC6"/><use xlink:href="#icon-tgm" x="0" y="1350" width="22" height="19" style="fill:#ffffff"/><use xlink:href="#icon-tgm" x="0" y="1379" width="22" height="19" style="fill:#232b5b"/></svg>