<svg xmlns="http://www.w3.org/2000/svg" width="180" height="59" viewBox="0 0 180 59">
  <defs>
    <style>
      .cls-1 {
        fill: #23295b;
        fill-rule: evenodd;
      }
    </style>
  </defs>
  <path id="Заливка_цветом_1" data-name="Заливка цветом 1" class="cls-1" d="M18.761,35.654c-2.041,1.907-6.427,3.014-10.5,2.4C4.042,37.42,1.023,35.1.208,30.237c-0.724-4.327.836-11.384,9.617-11.384,7.4,0,8.935,2.606,8.935,2.606V19.127h7.98V35.86c0,3.456-.618,10.046-12.141,10.767-4.682.293-12.482-2.057-12.482-2.057V37.917S8.442,40.9,13.236,40.249C18.9,39.482,18.507,37.885,18.761,35.654Zm-10.64-7.2c0,2.624,2.921,3.086,5.252,3.086s5.388-.444,5.388-2.949-2.219-3.155-5.252-3.155S8.12,26.029,8.12,28.453Zm33.9,11.11c8.48,0,13.369-3.9,13.369-9.669s-2.858-11.178-13.1-11.178-13.5,5.3-13.5,10.15S31.119,39.563,42.019,39.563ZM36.767,29.071c0,3.486,3.442,3.772,5.115,3.772s5.525-.123,5.525-3.429-2.226-3.977-5.388-3.977S36.767,26.452,36.767,29.071ZM57.433,39.22h7.98V12.475h-7.98V39.22Zm28.647-2.4s-2.615,3.057-9.071,2.675-9.637-4.263-9.617-10.424,3.739-10.417,10.436-10.355,8.253,2.949,8.253,2.949V12.338h7.912V39.22H86.08v-2.4ZM75.372,29.071c0,3.486,3.442,3.772,5.115,3.772s5.593-.123,5.593-3.429-2.294-3.977-5.457-3.977S75.372,26.452,75.372,29.071Zm33.148-9.944h15.824V39.22h-7.98V25.848h-7.981v13.3h-8.048V25.779H95.7V19.127H100.4s-0.743-6.287,6.821-7.2a63.117,63.117,0,0,1,15.756-.069v5.9a97.488,97.488,0,0,0-10.913-.274C108.262,17.708,108.52,19.127,108.52,19.127Zm35.194,7h7.98s0.693-5.743-6.07-6.858a35.586,35.586,0,0,0-13.982.274c-3.744.672-4.8,3.192-4.911,5.829s1.536,4.661,4.365,5.281,4.659,0.844,11.663,1.234c1.748,0.1,1.72,1.741,0,1.852a47.215,47.215,0,0,1-6.411,0c-1.146-.2-1.567-0.242-1.637-1.509h-7.98s-0.19,5.611,5.388,6.584a37.857,37.857,0,0,0,14.937-.069c4.127-1,4.979-3.357,4.979-5.829s-0.921-4.837-5.456-5.623a99.175,99.175,0,0,0-10.708-1.029c-1.829-.16-1.314-1.64.136-1.714a47.662,47.662,0,0,1,6.207,0C143.922,24.863,143.714,26.122,143.714,26.122Zm18.28,13.1h-7.981V12.406h7.912v9.121s2.123-2.87,7.912-2.743,10.095,3,10.095,8.847V39.152H172.02V29.071c0-3.073-2.25-3.844-5.047-3.772s-4.979.483-4.979,3.978V39.22ZM2.486,3.979H0V2.5H2.486V0.647l1.565-.37V2.5H9.39V3.979H4.051V7.033c0,1.483.767,2.125,2.762,2.129a11.665,11.665,0,0,0,2.67-.185v1.481a14.761,14.761,0,0,1-3.038.185c-2.495,0-3.958-.946-3.958-3.7V3.979ZM12.7,10.458H11.139V0H12.7v4.35s0.761-1.944,4.142-1.944,4.419,2.039,4.419,3.7v4.443H19.7V6.2c0-1.442-1.6-2.406-3.038-2.406C13.356,3.794,12.7,5.483,12.7,6.2v4.258Zm20.712-2.5s-0.332,2.684-5.247,2.684-5.431-2.532-5.431-4.35,1.327-3.98,5.523-3.98,5.339,2.5,5.339,3.7V7.033H24.3S24.363,9.5,28.169,9.44c3.339-.052,3.5-1.481,3.5-1.481h1.749ZM24.3,5.923h7.64s0.066-2.314-3.774-2.314S24.3,5.923,24.3,5.923ZM97.5,56.355c3.188,0,5.427-1.313,5.427-3.884s-1.27-4.439-5.427-4.439-5.518,1.838-5.518,4.161S93.544,56.355,97.5,56.355Zm-0.092-1.572c2.547,0,3.955-.655,3.955-2.589s-1.475-2.682-3.863-2.682-3.863.666-3.863,2.682S94.861,54.783,97.408,54.783Zm-8.157-3.237c-0.305-1.456-1.7-2.034-3.8-2.034-2.388,0-3.863.666-3.863,2.682s1.224,2.589,3.771,2.589c2.238,0,3.6-.506,3.893-1.942h1.608c-0.366,2.464-2.378,3.514-5.409,3.514-3.956,0-5.518-1.838-5.518-4.161s1.361-4.161,5.518-4.161c3.64,0,5.066,1.432,5.364,3.514H89.251Zm16.8-1.48V48.218h-1.472V56.17h1.472V52.379c0-.332.2-2.959,3.771-2.959,3.162,0,3.311,2.331,3.311,2.867V56.17H114.7V52.286c0-.722,0-3.26-2.575-3.976S107.147,48.351,106.054,50.067Zm11.68,3.607s-0.238,1.2,1.472,1.387a17.375,17.375,0,0,0,4.415-.092c1.49-.229,1.4-1.884-0.092-2.034-1.139-.115-3.535-0.131-4.967-0.277a2.221,2.221,0,1,1,0-4.439,21.006,21.006,0,0,1,5.243,0,2.425,2.425,0,0,1,2.3,2.5H124.54a1.249,1.249,0,0,0-1.2-1.295,14.922,14.922,0,0,0-4.6,0,1.02,1.02,0,0,0,.092,2.035c1.519,0.194,4.054.116,5.426,0.37a2.031,2.031,0,0,1,1.932,2.127c0,1.092-.422,2-2.208,2.219a19.977,19.977,0,0,1-5.7-.093,2.328,2.328,0,0,1-2.115-2.4h1.563Zm18.487,0.654v1.851h1.563V48.218h-1.563v3.8c0,0.332-.2,2.962-3.771,2.962-3.163,0-3.311-2.333-3.311-2.87V48.218h-1.564v3.888a3.835,3.835,0,0,0,2.668,3.981C132.816,56.8,135.127,56.046,136.221,54.327Zm3.587-8.607h1.563V56.17h-1.563V45.721Zm5.518,3.976h-2.483v-1.48h2.483V46.368L146.89,46v2.219h5.334V49.7H146.89v3.052c0,1.481.766,2.123,2.759,2.127a7.984,7.984,0,0,0,2.667-.277v1.48a13.048,13.048,0,0,1-2.943.185c-2.492,0-4.047-.853-4.047-3.606V49.7Zm8.646-1.387h1.471v7.86h-1.471V48.31Zm0.735-1.48a0.849,0.849,0,0,0,1.012-.925,0.837,0.837,0,0,0-1.012-.832A0.887,0.887,0,1,0,154.707,46.83Zm4.323,3.237V48.218h-1.471V56.17h1.471V52.379c0-.332.2-2.959,3.771-2.959,3.163,0,3.311,2.331,3.311,2.867V56.17h1.564V52.286c0-.722,0-3.26-2.576-3.976S160.124,48.351,159.03,50.067ZM180,48.218h-1.564V49.79s-1-1.757-4.6-1.757-4.691,2.188-4.691,3.976,1.055,4.161,4.967,4.161c3.382,0,4.322-1.849,4.322-1.849s0.849,3.393-3.586,3.329c-4.182-.06-5.059-0.74-5.059-0.74v1.48s0.848,0.647,5.059.647S180,56.914,180,55.523V48.218ZM178.436,52.1c0-1.412-.773-2.589-4.046-2.589s-3.679,1.822-3.679,2.589,0.164,2.589,3.863,2.589C177.742,54.691,178.436,53.513,178.436,52.1Z"/>
</svg>
